<svg width="92" height="49" viewBox="0 0 92 49" fill="none" xmlns="http://www.w3.org/2000/svg">
<path d="M44.4545 18.9091H31.6364C31.5455 17.8485 31.303 16.8864 30.9091 16.0227C30.5303 15.1591 30 14.4167 29.3182 13.7955C28.6515 13.1591 27.8409 12.6742 26.8864 12.3409C25.9318 11.9924 24.8485 11.8182 23.6364 11.8182C21.5152 11.8182 19.7197 12.3333 18.25 13.3636C16.7955 14.3939 15.6894 15.8712 14.9318 17.7955C14.1894 19.7197 13.8182 22.0303 13.8182 24.7273C13.8182 27.5758 14.197 29.9621 14.9545 31.8864C15.7273 33.7955 16.8409 35.2348 18.2955 36.2045C19.75 37.1591 21.5 37.6364 23.5455 37.6364C24.7121 37.6364 25.7576 37.4924 26.6818 37.2045C27.6061 36.9015 28.4091 36.4697 29.0909 35.9091C29.7727 35.3485 30.3258 34.6742 30.75 33.8864C31.1894 33.0833 31.4848 32.1818 31.6364 31.1818L44.4545 31.2727C44.303 33.2424 43.75 35.25 42.7955 37.2955C41.8409 39.3258 40.4848 41.2045 38.7273 42.9318C36.9848 44.6439 34.8258 46.0227 32.25 47.0682C29.6742 48.1136 26.6818 48.6364 23.2727 48.6364C19 48.6364 15.1667 47.7197 11.7727 45.8864C8.39394 44.053 5.7197 41.3561 3.75 37.7955C1.79545 34.2348 0.818182 29.8788 0.818182 24.7273C0.818182 19.5455 1.81818 15.1818 3.81818 11.6364C5.81818 8.07576 8.51515 5.38636 11.9091 3.56818C15.303 1.73485 19.0909 0.81818 23.2727 0.81818C26.2121 0.81818 28.9167 1.21969 31.3864 2.02272C33.8561 2.82576 36.0227 4 37.8864 5.54545C39.75 7.07576 41.25 8.96212 42.3864 11.2045C43.5227 13.447 44.2121 16.0152 44.4545 18.9091ZM68.0966 48H50.1875V1.45454H67.9148C72.7027 1.45454 76.839 2.38636 80.3239 4.25C83.8239 6.09848 86.5208 8.76515 88.4148 12.25C90.3239 15.7197 91.2784 19.8788 91.2784 24.7273C91.2784 29.5758 90.3314 33.7424 88.4375 37.2273C86.5436 40.697 83.8617 43.3636 80.392 45.2273C76.9223 47.0758 72.8239 48 68.0966 48ZM62.8239 37.2727H67.642C69.9451 37.2727 71.9072 36.9015 73.5284 36.1591C75.1648 35.4167 76.4072 34.1364 77.2557 32.3182C78.1193 30.5 78.5511 27.9697 78.5511 24.7273C78.5511 21.4848 78.1117 18.9545 77.233 17.1364C76.3693 15.3182 75.0966 14.0379 73.4148 13.2955C71.7481 12.553 69.7027 12.1818 67.2784 12.1818H62.8239V37.2727Z" fill="#0057FF"/>
</svg>
